<svg xmlns="http://www.w3.org/2000/svg" width="805" height="600"><rect width="805" height="600" x="0" y="0" fill="#FFFFFF" id="backgorund"/><g id="viz"><clipPath id="serieClipPath"><rect x="-50" y="-10" width="805" height="600"/></clipPath><g transform="translate(0,0)"><g transform="translate(50,10)" clip-path="url(#serieClipPath)"><g id="axis"><g transform="translate(0,570)" fill="none" font-size="10" font-family="sans-serif" text-anchor="middle"><path class="domain" stroke="currentColor" d="M0.5,6V0.5H740.5V6"/><g class="tick" opacity="1" transform="translate(0.5,0)"><line stroke="currentColor" y2="6"/><text fill="currentColor" y="9" dy="0.71em">Fri 17</text></g><g class="tick" opacity="1" transform="translate(57.42307692307693,0)"><line stroke="currentColor" y2="6"/><text fill="currentColor" y="9" dy="0.71em">Sat 18</text></g><g class="tick" opacity="1" transform="translate(114.34615384615385,0)"><line stroke="currentColor" y2="6"/><text fill="currentColor" y="9" dy="0.71em">Dec 19</text></g><g class="tick" opacity="1" transform="translate(171.26923076923077,0)"><line stroke="currentColor" y2="6"/><text fill="currentColor" y="9" dy="0.71em">Mon 20</text></g><g class="tick" opacity="1" transform="translate(228.1923076923077,0)"><line stroke="currentColor" y2="6"/><text fill="currentColor" y="9" dy="0.71em">Tue 21</text></g><g class="tick" opacity="1" transform="translate(285.11538461538464,0)"><line stroke="currentColor" y2="6"/><text fill="currentColor" y="9" dy="0.71em">Wed 22</text></g><g class="tick" opacity="1" transform="translate(342.03846153846155,0)"><line stroke="currentColor" y2="6"/><text fill="currentColor" y="9" dy="0.71em">Thu 23</text></g><g class="tick" opacity="1" transform="translate(398.96153846153845,0)"><line stroke="currentColor" y2="6"/><text fill="currentColor" y="9" dy="0.71em">Fri 24</text></g><g class="tick" opacity="1" transform="translate(455.8846153846154,0)"><line stroke="currentColor" y2="6"/><text fill="currentColor" y="9" dy="0.71em">Sat 25</text></g><g class="tick" opacity="1" transform="translate(512.8076923076923,0)"><line stroke="currentColor" y2="6"/><text fill="currentColor" y="9" dy="0.71em">Dec 26</text></g><g class="tick" opacity="1" transform="translate(569.7307692307693,0)"><line stroke="currentColor" y2="6"/><text fill="currentColor" y="9" dy="0.71em">Mon 27</text></g><g class="tick" opacity="1" transform="translate(626.6538461538462,0)"><line stroke="currentColor" y2="6"/><text fill="currentColor" y="9" dy="0.71em">Tue 28</text></g><g class="tick" opacity="1" transform="translate(683.5769230769231,0)"><line stroke="currentColor" y2="6"/><text fill="currentColor" y="9" dy="0.71em">Wed 29</text></g><g class="tick" opacity="1" transform="translate(740.5,0)"><line stroke="currentColor" y2="6"/><text fill="currentColor" y="9" dy="0.71em">Thu 30</text></g><text x="740" dy="-5" text-anchor="end" style="font-family: Arial, sans-serif; font-size: 12px; fill: rgb(123, 123, 123); font-weight: bold;">日期</text></g><g transform="translate(0,0)" fill="none" font-size="10" font-family="sans-serif" text-anchor="end"><path class="domain" stroke="currentColor" d="M0.5,570.5V0.5"/><g class="tick" opacity="1" transform="translate(0,570.5)"><line stroke="currentColor" x2="-6"/><text fill="currentColor" x="-9" dy="0.32em">596</text></g><g class="tick" opacity="1" transform="translate(0,523)"><line stroke="currentColor" x2="-6"/><text fill="currentColor" x="-9" dy="0.32em">598</text></g><g class="tick" opacity="1" transform="translate(0,475.5)"><line stroke="currentColor" x2="-6"/><text fill="currentColor" x="-9" dy="0.32em">600</text></g><g class="tick" opacity="1" transform="translate(0,428)"><line stroke="currentColor" x2="-6"/><text fill="currentColor" x="-9" dy="0.32em">602</text></g><g class="tick" opacity="1" transform="translate(0,380.50000000000006)"><line stroke="currentColor" x2="-6"/><text fill="currentColor" x="-9" dy="0.32em">604</text></g><g class="tick" opacity="1" transform="translate(0,332.99999999999994)"><line stroke="currentColor" x2="-6"/><text fill="currentColor" x="-9" dy="0.32em">606</text></g><g class="tick" opacity="1" transform="translate(0,285.5)"><line stroke="currentColor" x2="-6"/><text fill="currentColor" x="-9" dy="0.32em">608</text></g><g class="tick" opacity="1" transform="translate(0,237.99999999999997)"><line stroke="currentColor" x2="-6"/><text fill="currentColor" x="-9" dy="0.32em">610</text></g><g class="tick" opacity="1" transform="translate(0,190.50000000000003)"><line stroke="currentColor" x2="-6"/><text fill="currentColor" x="-9" dy="0.32em">612</text></g><g class="tick" opacity="1" transform="translate(0,143)"><line stroke="currentColor" x2="-6"/><text fill="currentColor" x="-9" dy="0.32em">614</text></g><g class="tick" opacity="1" transform="translate(0,95.49999999999999)"><line stroke="currentColor" x2="-6"/><text fill="currentColor" x="-9" dy="0.32em">616</text></g><g class="tick" opacity="1" transform="translate(0,48.00000000000002)"><line stroke="currentColor" x2="-6"/><text fill="currentColor" x="-9" dy="0.32em">618</text></g><g class="tick" opacity="1" transform="translate(0,0.5)"><line stroke="currentColor" x2="-6"/><text fill="currentColor" x="-9" dy="0.32em">620</text></g><text x="4" text-anchor="start" dominant-baseline="hanging" style="font-family: Arial, sans-serif; font-size: 12px; fill: rgb(123, 123, 123); font-weight: bold;">開盤</text></g></g><g id="viz"><g><path d="M0,451.25L28.461538461538463,427.5C56.92307692307693,403.75,113.84615384615385,356.25,151.7948717948718,372.0833333333333C189.74358974358975,387.9166666666667,208.71794871794873,467.0833333333333,227.6923076923077,502.7083333333333C246.66666666666666,538.3333333333334,265.6410256410257,530.4166666666666,284.6153846153846,490.8333333333333C303.5897435897436,451.25,322.5641025641026,380,341.5384615384616,348.3333333333333C360.5128205128205,316.6666666666667,379.4871794871795,324.5833333333333,417.43589743589746,336.4583333333333C455.3846153846154,348.3333333333333,512.3076923076924,364.1666666666667,550.2564102564103,348.3333333333333C588.2051282051283,332.50000000000006,607.1794871794872,285,626.1538461538462,241.45833333333334C645.1282051282052,197.91666666666666,664.1025641025641,158.33333333333334,683.0769230769232,122.70833333333333C702.0512820512821,87.08333333333333,721.025641025641,55.41666666666666,730.5128205128204,39.58333333333332L740,23.74999999999998" stroke="#1f77b4" fill="none"/><text font-family="sans-serif" font-size="10" class="labels" x="740" y="23.74999999999998" dx="0" dy="-4" text-anchor="middle"/></g></g></g><text y="4" x="4" style="font-family: Arial, sans-serif; font-size: 12px; fill: black; font-weight: bold; dominant-baseline: hanging;"/></g><g id="grid"><rect x="0" y="0" width="805" height="600" fill="none" stroke="#ccc"/></g></g></svg>